# xmcd
#
# Track frame offsets: 
#        150
#        14589
#        34396
#        51299
#        68340
#        79938
#        100450
#        120208
#        138471
#        156276
#
# Disc length: 2311 seconds
#
# Revision: 0
# Processed by: cddbd v1.5.2PL0 Copyright (c) Steve Scherf et al.
# Submitted via: ExactAudioCopy v1.0b4
#
DISCID=8209050a
DTITLE=Hank Mowery - Account to Me
DYEAR=2013
DGENRE=Blues
TTITLE0=Spend a Little Time
TTITLE1=Account to Me
TTITLE2=Put the Hammer Down
TTITLE3=If I Knew What I Know
TTITLE4=Banana Oil
TTITLE5=Tricky Game
TTITLE6=My Home
TTITLE7=Pray for a Cloudy Day
TTITLE8=Target
TTITLE9=That's No Way to Get Along
EXTD=
EXTT0=
EXTT1=
EXTT2=
EXTT3=
EXTT4=
EXTT5=
EXTT6=
EXTT7=
EXTT8=
EXTT9=
PLAYORDER=
